#tb 0: 1/25
#media_type 0: video
#codec_id 0: rawvideo
#dimensions 0: 960x544
#sar 0: 0/1
0,          0,          0,        1,   783360, 0xbc458a9a
0,          1,          1,        1,   783360, 0xc2b4a765
0,          2,          2,        1,   783360, 0x40a8ca87
0,          3,          3,        1,   783360, 0xdd0cbc2c
0,          4,          4,        1,   783360, 0xecf8e434
0,          5,          5,        1,   783360, 0xcc87e3d4
0,          6,          6,        1,   783360, 0x386e1a34
0,          7,          7,        1,   783360, 0x6ac4a62e
0,          8,          8,        1,   783360, 0xf23d89bb
0,          9,          9,        1,   783360, 0x52f7b94c
0,         10,         10,        1,   783360, 0x2b4ea2c2
0,         11,         11,        1,   783360, 0x0a43839c
0,         12,         12,        1,   783360, 0xad4b81ea
0,         13,         13,        1,   783360, 0xcb4fe0d4
0,         14,         14,        1,   783360, 0x6c3ca755
0,         15,         15,        1,   783360, 0x17d37f49
0,         16,         16,        1,   783360, 0x8fdfebec
0,         17,         17,        1,   783360, 0x1a177b49
0,         18,         18,        1,   783360, 0x72d230ad
0,         19,         19,        1,   783360, 0x62147d69
0,         20,         20,        1,   783360, 0xeed9b62c
0,         21,         21,        1,   783360, 0x7fc45b23
0,         22,         22,        1,   783360, 0x5dc60681
0,         23,         23,        1,   783360, 0x2d91c001
0,         24,         24,        1,   783360, 0x259ab608
0,         25,         25,        1,   783360, 0x29112b29
0,         26,         26,        1,   783360, 0x7e4d497e
0,         27,         27,        1,   783360, 0x616e5507
0,         28,         28,        1,   783360, 0x299473c9
0,         29,         29,        1,   783360, 0x4d63d722
0,         30,         30,        1,   783360, 0xa89e4bc6
0,         31,         31,        1,   783360, 0xbdef585a
0,         32,         32,        1,   783360, 0x5b12c72c
0,         33,         33,        1,   783360, 0x5a884bd8
0,         34,         34,        1,   783360, 0x97728ade
0,         35,         35,        1,   783360, 0x27dd8999
0,         36,         36,        1,   783360, 0x94104d66
0,         37,         37,        1,   783360, 0xf30244f1
0,         38,         38,        1,   783360, 0xfc98c63e
0,         39,         39,        1,   783360, 0x8b27de2e
0,         40,         40,        1,   783360, 0xfc6bbbf2
0,         41,         41,        1,   783360, 0x4527b6a3
0,         42,         42,        1,   783360, 0x4070daf0
